<?xml version="1.0" encoding="UTF-8" standalone="no"?>
<svg
   xmlns:dc="http://purl.org/dc/elements/1.1/"
   xmlns:cc="http://creativecommons.org/ns#"
   xmlns:rdf="http://www.w3.org/1999/02/22-rdf-syntax-ns#"
   xmlns:svg="http://www.w3.org/2000/svg"
   xmlns="http://www.w3.org/2000/svg"
   xmlns:sodipodi="http://sodipodi.sourceforge.net/DTD/sodipodi-0.dtd"
   xmlns:inkscape="http://www.inkscape.org/namespaces/inkscape"
   enable-background="new 0 0 36 36"
   height="36px"
   id="Layer_1"
   version="1.1"
   viewBox="0 0 36 36"
   width="36px"
   x="0px"
   xml:space="preserve"
   y="0px"
   inkscape:version="0.48.4 r9939"
   sodipodi:docname="mic_off.svg"><metadata
     id="metadata19"><rdf:RDF><cc:Work
         rdf:about=""><dc:format>image/svg+xml</dc:format><dc:type
           rdf:resource="http://purl.org/dc/dcmitype/StillImage" /><dc:title></dc:title></cc:Work></rdf:RDF></metadata><defs
     id="defs17" /><sodipodi:namedview
     pagecolor="#ffffff"
     bordercolor="#666666"
     borderopacity="1"
     objecttolerance="10"
     gridtolerance="10"
     guidetolerance="10"
     inkscape:pageopacity="0"
     inkscape:pageshadow="2"
     inkscape:window-width="1340"
     inkscape:window-height="873"
     id="namedview15"
     showgrid="false"
     inkscape:zoom="17.771701"
     inkscape:cx="8.0122113"
     inkscape:cy="18"
     inkscape:window-x="149"
     inkscape:window-y="81"
     inkscape:window-maximized="0"
     inkscape:current-layer="Layer_1" /><g
     id="g3"
     style="fill:#b6bcbf;fill-opacity:1"
     inkscape:export-filename="/home/dmfrey/Development/Android/git/KeithAndTheGirlApp/app/src/main/res/drawable-hdpi/ic_live_mic_off.png"
     inkscape:export-xdpi="89.997192"
     inkscape:export-ydpi="89.997192"><defs
       id="defs5"><rect
         height="36"
         id="SVGID_1_"
         width="36" /></defs><g
       id="g8"
       style="fill:#b6bcbf;fill-opacity:1"><defs
         id="defs10"><rect
           height="36"
           id="SVGID_3_"
           width="36" /></defs><path
         d="M33,14h-4v-4c0-1.104-0.895-2-2-2h-2.066c-0.41-3.387-2.91-6-6.934-6    c-4.021,0-6.521,2.613-6.932,6H9c-1.104,0-2,0.896-2,2v4H3c-0.553,0-1,0.447-1,1c0,0.552,0.447,1,1,1h4v0.982    c0,4.85,3.119,9.007,7.545,10.462c-2.381,0.63-4.309,1.9-5.272,3.546c-0.361,0.618-0.365,1.383-0.007,2.005    c0.357,0.621,1.017,1.006,1.734,1.006h14c0.717,0,1.379-0.385,1.736-1.006c0.355-0.622,0.352-1.387-0.01-2.005    c-0.963-1.646-2.889-2.916-5.271-3.546c4.396-1.445,7.502-5.554,7.543-10.346C29,17.066,29,17.034,29,17v-1h4c0.553,0,1-0.448,1-1    C34,14.447,33.553,14,33,14 M13,9c0-2.762,1.686-5,5-5c3.314,0,5.121,2.238,5.121,5v8c0,2.761-1.807,5-5.121,5    c-3.314,0-5-2.239-5-5V9z M27,17h-0.002c0,4.631-3.498,8.442-7.998,8.941v3.107c2.789,0.228,5.086,1.389,6,2.952H11    c0.914-1.563,3.211-2.725,6-2.952v-3.107C12.5,25.443,9,21.633,9,17v-0.018V10h2v7c0,3.859,2.59,7,7,7c4.412,0,7-3.142,7-7v-7h2    V17z"
         fill="#231F20"
         id="path13"
         style="fill:#b6bcbf;fill-opacity:1" /></g></g></svg>